<svg width="661" height="152" xmlns="http://www.w3.org/2000/svg" xmlns:xlink="http://www.w3.org/1999/xlink" xml:space="preserve" overflow="hidden"><defs><clipPath id="clip0"><rect x="199" y="208" width="661" height="152"/></clipPath></defs><g clip-path="url(#clip0)" transform="translate(-199 -208)"><path d="M283.49 272.62 283.49 293.471 294.53 293.471 294.53 291.96 285.198 291.96 285.198 272.62 283.49 272.62Z" fill="#0076BB" transform="matrix(1.0009 0 0 1 92.1341 91.1327)"/><path d="M300.911 272.62 302.619 272.62 302.619 293.485 300.911 293.485Z" fill="#0076BB" transform="matrix(1.0009 0 0 1 92.1341 91.1327)"/><path d="M312.176 272.62 312.176 293.471 313.871 293.471 313.871 283.772 321.437 283.772 321.437 282.262 313.871 282.262 313.871 274.13 323.019 274.13 323.019 272.62 312.176 272.62Z" fill="#0076BB" transform="matrix(1.0009 0 0 1 92.1341 91.1327)"/><path d="M330.444 272.62 330.444 293.471 341.569 293.471 341.569 291.96 332.152 291.96 332.152 283.575 339.705 283.575 339.705 282.064 332.152 282.064 332.152 274.13 341.286 274.13 341.286 272.62 330.444 272.62Z" fill="#0076BB" transform="matrix(1.0009 0 0 1 92.1341 91.1327)"/><path d="M380.053 272.62 373.855 290.845 370.1 281.09 373.163 272.62 371.695 272.62 369.309 279.354 366.74 272.62 364.975 272.62 368.547 281.471 365.004 291.142 358.27 272.62 356.378 272.62 364.411 293.895 365.441 293.895 369.267 283.363 373.347 293.895 374.335 293.895 381.944 272.62 380.053 272.62Z" fill="#0076BB" transform="matrix(1.0009 0 0 1 92.1341 91.1327)"/><path d="M388.467 272.62 390.175 272.62 390.175 293.485 388.467 293.485Z" fill="#0076BB" transform="matrix(1.0009 0 0 1 92.1341 91.1327)"/><path d="M396.528 272.62 396.528 274.13 403.487 274.13 403.487 293.471 405.196 293.471 405.196 274.13 412.155 274.13 412.155 272.62 396.528 272.62Z" fill="#0076BB" transform="matrix(1.0009 0 0 1 92.1341 91.1327)"/><path d="M433.43 272.62 433.43 281.965 420.245 281.965 420.245 272.62 418.536 272.62 418.536 293.471 420.245 293.471 420.245 283.49 433.43 283.49 433.43 293.471 435.138 293.471 435.138 272.62 433.43 272.62Z" fill="#0076BB" transform="matrix(1.0009 0 0 1 92.1341 91.1327)"/><path d="M452.884 273.82C448.366 273.82 444.724 278.055 444.724 283.052 444.724 288.05 448.366 292.313 452.884 292.313 457.401 292.313 461.001 288.078 461.001 283.052 461.001 278.027 457.359 273.82 452.884 273.82M452.884 293.895C447.096 293.895 442.832 289.405 442.832 283.052 442.832 276.7 447.096 272.239 452.884 272.239 458.672 272.239 462.893 276.728 462.893 283.052 462.893 289.377 458.644 293.895 452.884 293.895" fill="#0076BB" transform="matrix(1.0009 0 0 1 92.1341 91.1327)"/><path d="M477.787 294.078C473.043 294.078 470.051 291.396 470.051 286.342L470.051 272.62 471.759 272.62 471.759 285.834C471.759 289.815 473.509 292.497 477.773 292.497 482.036 292.497 483.787 289.801 483.787 285.834L483.787 272.62 485.495 272.62 485.495 286.342C485.495 291.269 482.544 294.078 477.801 294.078" fill="#0076BB" transform="matrix(1.0009 0 0 1 92.1341 91.1327)"/><path d="M491.297 272.62 491.297 274.13 498.257 274.13 498.257 293.471 499.965 293.471 499.965 274.13 506.911 274.13 506.911 272.62 491.297 272.62Z" fill="#0076BB" transform="matrix(1.0009 0 0 1 92.1341 91.1327)"/><path d="M523.428 272.62 523.428 293.471 534.468 293.471 534.468 291.96 525.122 291.96 525.122 272.62 523.428 272.62Z" fill="#0076BB" transform="matrix(1.0009 0 0 1 92.1341 91.1327)"/><path d="M540.849 272.62 542.543 272.62 542.543 293.485 540.849 293.485Z" fill="#0076BB" transform="matrix(1.0009 0 0 1 92.1341 91.1327)"/><path d="M569.267 272.62 561.969 291.608 554.924 272.62 552.044 272.62 552.044 293.471 553.597 293.471 553.597 274.102 560.924 293.471 562.66 293.471 570.368 274.102 570.368 293.471 572.076 293.471 572.076 272.62 569.267 272.62Z" fill="#0076BB" transform="matrix(1.0009 0 0 1 92.1341 91.1327)"/><path d="M581.648 272.62 583.356 272.62 583.356 293.485 581.648 293.485Z" fill="#0076BB" transform="matrix(1.0009 0 0 1 92.1341 91.1327)"/><path d="M589.709 272.62 589.709 274.13 596.655 274.13 596.655 293.471 598.363 293.471 598.363 274.13 605.323 274.13 605.323 272.62 589.709 272.62Z" fill="#0076BB" transform="matrix(1.0009 0 0 1 92.1341 91.1327)"/><path d="M615.021 273.749 619.003 285.438 610.998 285.438 615.007 273.749ZM613.948 272.013 606.452 293.471 608.316 293.471 610.476 287.048 619.539 287.048 621.685 293.471 623.548 293.471 616.08 272.013 613.934 272.013Z" fill="#0076BB" transform="matrix(1.0009 0 0 1 92.1341 91.1327)"/><path d="M624.678 272.62 624.678 274.13 631.623 274.13 631.623 293.471 633.332 293.471 633.332 274.13 640.291 274.13 640.291 272.62 624.678 272.62Z" fill="#0076BB" transform="matrix(1.0009 0 0 1 92.1341 91.1327)"/><path d="M646.672 272.62 648.381 272.62 648.381 293.485 646.672 293.485Z" fill="#0076BB" transform="matrix(1.0009 0 0 1 92.1341 91.1327)"/><path d="M666.14 273.82C661.623 273.82 657.98 278.055 657.98 283.052 657.98 288.05 661.623 292.313 666.14 292.313 670.658 292.313 674.258 288.078 674.258 283.052 674.258 278.027 670.615 273.82 666.14 273.82M666.14 293.895C660.352 293.895 656.089 289.405 656.089 283.052 656.089 276.7 660.352 272.239 666.14 272.239 671.928 272.239 676.149 276.728 676.149 283.052 676.149 289.377 671.886 293.895 666.14 293.895" fill="#0076BB" transform="matrix(1.0009 0 0 1 92.1341 91.1327)"/><path d="M698.342 272.62 698.342 291.17 686.37 272.62 683.843 272.62 683.843 293.471 685.552 293.471 685.552 274.737 697.904 293.669 700.05 293.669 700.05 272.62 698.342 272.62Z" fill="#0076BB" transform="matrix(1.0009 0 0 1 92.1341 91.1327)"/><path d="M719.532 275.302C717.951 274.356 716.497 273.848 714.633 273.848 712.106 273.848 710.299 275.203 710.299 277.349 710.299 279.241 711.302 280.158 715.48 282.474 717.908 283.801 720.252 285.128 720.252 288.262 720.252 291.706 717.81 293.895 713.843 293.895 711.429 293.895 709.791 293.203 707.857 291.862L708.746 290.436C710.525 291.636 711.81 292.299 714.026 292.299 716.68 292.299 718.36 290.845 718.36 288.502 718.36 285.41 714.944 284.139 712.713 282.883 709.636 281.175 708.407 279.41 708.407 277.377 708.407 274.215 710.906 272.253 714.859 272.253 717.047 272.253 718.487 272.69 720.323 273.806L719.532 275.288Z" fill="#0076BB" transform="matrix(1.0009 0 0 1 92.1341 91.1327)"/><path d="M283.547 146.877C283.547 140.863 288.389 136.02 294.417 136.02 300.445 136.02 305.33 140.863 305.33 146.877 305.33 152.891 300.431 157.733 294.417 157.733 288.403 157.733 283.547 152.877 283.547 146.877" fill="#0076BB" transform="matrix(1.0009 0 0 1 92.1341 91.1327)"/><path d="M317.993 146.877C317.993 140.863 322.863 136.02 328.905 136.02 334.948 136.02 339.776 140.863 339.776 146.877 339.776 152.891 334.877 157.733 328.905 157.733 322.934 157.733 317.993 152.877 317.993 146.877" fill="#0076BB" transform="matrix(1.0009 0 0 1 92.1341 91.1327)"/><path d="M605.012 167.742 605.012 223.59C605.012 228.701 602.118 236.522 586.01 236.522 569.902 236.522 567.587 228.701 567.375 223.59L567.375 167.742 546.976 167.742 546.976 223.35C546.976 231.341 551.042 240.856 567.488 248.267 572.881 249.933 579.629 250.893 586.575 250.893 593.521 250.893 600.636 249.806 606.777 247.59 623.139 241.053 625.341 230.437 625.341 223.336L625.341 167.728 605.026 167.728Z" fill="#0076BB" transform="matrix(1.0009 0 0 1 92.1341 91.1327)"/><path d="M359.512 208.682C359.512 196.556 354.133 184.344 344.915 176.509 336.614 169.507 324.586 166.415 312.007 166.415 299.429 166.415 287.302 169.507 279.001 176.509 269.782 184.344 264.375 196.556 264.375 208.682 264.375 220.809 269.782 232.978 279.001 240.856 287.302 247.801 299.386 250.907 312.007 250.907 324.628 250.907 336.599 247.801 344.915 240.856 354.133 232.964 359.512 220.823 359.512 208.682M312.007 236.451C305.457 236.451 298.977 234.898 293.782 231.03 287.302 226.131 284.041 217.435 283.899 208.682 284.041 199.93 287.302 191.191 293.782 186.349 298.991 182.481 305.471 180.942 312.007 180.942 318.543 180.942 324.967 182.481 330.134 186.349 336.614 191.191 339.917 199.944 340.058 208.682 339.917 217.435 336.614 226.131 330.134 231.03 324.981 234.898 318.487 236.451 312.007 236.451" fill="#0076BB" transform="matrix(1.0009 0 0 1 92.1341 91.1327)"/><path d="M640.602 248.38 660.903 248.38 660.903 216.489 684.719 216.489C691.834 216.489 696.69 219.186 696.987 224.593 696.69 230.451 696.69 236.846 696.987 240.856 697.241 243.552 698.074 245.896 699.669 248.38L721.494 248.38 721.494 245.387C719.348 244.258 717.739 243.27 717.739 238.752 717.598 234.686 717.33 224.056 716.751 220.724 715.678 213.412 709.184 211.407 705.782 209.558 712.431 206.367 716.751 203.784 719.179 196.796 721.607 189.892 719.603 184.132 718.261 180.575 715.424 171.822 705.386 168.053 695.49 167.756L640.602 167.756 640.602 248.394ZM660.903 181.549 688.389 181.549C697.523 181.549 700.812 184.895 700.812 190.669 701.984 198.588 693.486 202.668 688.7 202.668L660.903 202.668 660.903 181.549Z" fill="#0076BB" transform="matrix(1.0009 0 0 1 92.1341 91.1327)"/><path d="M736.374 235.618 738.732 235.618C739.917 235.618 741.23 235.858 741.23 237.355 741.23 239.162 739.776 239.204 738.237 239.204L736.374 239.204 736.374 235.618ZM734.652 245.529 736.374 245.529 736.374 240.644 738.266 240.644 741.343 245.529 743.249 245.529 740.002 240.517C741.682 240.319 743.009 239.458 743.009 237.439 743.009 235.279 741.696 234.235 739.014 234.235L734.652 234.235 734.652 245.529ZM730.431 239.825C730.431 235.181 733.847 231.609 738.421 231.609 742.995 231.609 746.369 235.166 746.369 239.825 746.369 244.484 742.91 248.154 738.421 248.154 733.932 248.154 730.431 244.569 730.431 239.825M728.624 239.825C728.624 245.402 733.099 249.566 738.407 249.566 743.715 249.566 748.134 245.416 748.134 239.825 748.134 234.235 743.729 230.169 738.407 230.169 733.085 230.169 728.624 234.376 728.624 239.825" fill="#0076BB" transform="matrix(1.0009 0 0 1 92.1341 91.1327)"/><path d="M131.108 131.065 245.02 131.065 245.02 256.032 131.108 256.032Z" fill="#FFFFFF" transform="matrix(1.0009 0 0 1 92.1341 91.1327)"/><path d="M136.148 136.133 239.952 136.133 239.952 250.964 136.148 250.964Z" fill="#0076BB" transform="matrix(1.0009 0 0 1 92.1341 91.1327)"/><path d="M239.966 172.161C217.647 165.554 203.007 177.187 194.198 190.076 183.356 205.817 187.76 250.964 187.76 250.964L148.754 250.964C145.592 232.555 153.611 202.033 169.041 183.158 196.245 149.968 239.966 161.46 239.966 161.46L239.966 172.161Z" fill="#F4BC47" transform="matrix(1.0009 0 0 1 92.1341 91.1327)"/><path d="M210.193 150.83C210.193 148.133 212.367 145.959 215.063 145.959 217.76 145.959 219.92 148.119 219.92 150.83 219.92 153.54 217.732 155.686 215.063 155.686 212.395 155.686 210.193 153.498 210.193 150.83" fill="#F4BC47" transform="matrix(1.0009 0 0 1 92.1341 91.1327)"/><path d="M225.623 150.83C225.623 148.133 227.797 145.959 230.479 145.959 233.162 145.959 235.35 148.119 235.35 150.83 235.35 153.54 233.176 155.686 230.479 155.686 227.783 155.686 225.623 153.498 225.623 150.83" fill="#F4BC47" transform="matrix(1.0009 0 0 1 92.1341 91.1327)"/><path d="M445.133 192.32C445.938 189.652 444.597 182.142 439.43 176.721 429.844 166.754 411.379 166.415 406.085 166.415 381.958 166.415 370.58 175.93 368.942 188.791 367.319 201.807 376.142 208.118 386.843 211.096 399.591 214.612 419.115 214.612 425.609 220.16 430.508 224.155 429.534 230.451 425.214 233.783 422.63 235.745 416.292 237.425 409.487 237.51 402.697 237.75 395.398 236.508 390.909 232.767 387.535 229.887 386.716 226.569 386.716 224.437L366.952 224.437C367.615 232.089 371.949 240.051 380.773 245.246 388.071 249.566 399.986 251.034 405.012 250.907 416.009 250.808 427.515 249.679 435.929 245.246 448.239 238.738 453.562 219.609 442.169 209.868 435.929 204.659 424.254 202.654 418.833 201.934 415.021 201.37 397.205 198.49 393.916 197.459 389.441 196.047 387.252 194.41 387.803 188.819 388.481 182.226 395.793 179.459 405.746 179.558 419.68 179.784 426.315 185.798 426.033 192.292L445.148 192.292Z" fill="#0076BB" transform="matrix(1.0009 0 0 1 92.1341 91.1327)"/><path d="M533.607 192.32C534.411 189.652 533.07 182.142 527.903 176.721 518.318 166.754 499.852 166.415 494.558 166.415 470.432 166.415 459.053 175.93 457.416 188.791 455.792 201.807 464.615 208.118 475.316 211.096 488.064 214.612 507.589 214.612 514.082 220.16 518.981 224.155 518.007 230.451 513.687 233.783 511.104 235.745 504.765 237.425 497.961 237.51 491.17 237.75 483.871 236.508 479.382 232.767 476.008 229.887 475.189 226.569 475.189 224.437L455.425 224.437C456.089 232.089 460.423 240.051 469.246 245.246 476.545 249.566 488.46 251.034 493.485 250.907 504.483 250.808 515.988 249.679 524.402 245.246 536.713 238.738 542.035 219.609 530.642 209.868 524.402 204.659 512.727 202.654 507.306 201.934 503.495 201.37 485.678 198.49 482.389 197.459 477.914 196.047 475.726 194.41 476.276 188.819 476.954 182.226 484.267 179.459 494.219 179.558 508.153 179.784 514.788 185.798 514.506 192.292L533.621 192.292Z" fill="#0076BB" transform="matrix(1.0009 0 0 1 92.1341 91.1327)"/></g></svg>