<svg id="Layer_1" xmlns="http://www.w3.org/2000/svg" viewBox="0 0 200 59.7"><style>.steeper-full-st1{fill:#942b5c}</style><path d="M26.9 11.2c-2.4-2.4-5.5-3.8-8.7-4-3.1-.2-5.9.9-7.9 2.9-4.3 4.3-3.9 11.8 1 16.6l12.1 12.1c1.2 1.2 1.2 3.2 0 4.5-1.2 1.2-3.2 1.2-4.5 0l-12-12.1C-.5 23.9-1 12.4 5.8 5.6 8.9 2.5 13 .8 17.6.8h1c4.7.2 9.2 2.2 12.6 5.6l.4.4 5.3 5.3c1.2 1.2 1.2 3.2 0 4.5-1.2 1.2-3.2 1.2-4.5 0l-4.9-4.9-.6-.5z" fill="#c06229"/><path class="steeper-full-st1" d="M32.4 27.8L21.5 16.9l.7-.7c.5-.5.4-1-.4-1.1l-6.1-.6c-.8-.1-1.3.5-1.2 1.2l.7 6c.1.8.6.9 1.1.4l.7-.7 10.9 10.9c4.9 4.9 5.4 12.4 1.1 16.7-2 2-4.8 3.1-7.9 2.9-3.2-.2-6.3-1.6-8.7-4l-.5-.5L7 42.5c-1.2-1.2-3.2-1.2-4.5 0-1.2 1.2-1.2 3.2 0 4.5l5.3 5.3.4.4c3.5 3.4 8 5.4 12.6 5.6h1c4.5 0 8.7-1.7 11.8-4.8 6.6-6.8 6.1-18.3-1.2-25.7"/><g><path class="steeper-full-st1" d="M62 28c-1 0-2-.1-3-.2-3.2-.3-4-.7-4-3.7 0-2.4 1.1-3.7 6.6-3.7 4.9 0 5.8 1.4 5.8 4.1v.4h2.7v-.4c0-2-.5-3.6-1.5-4.7-1.3-1.4-3.6-2-7.1-2h-.3c-6.5 0-9.1 2-9.1 6.8 0 5.8 3.6 5.9 8.2 6.2.9 0 1.9.1 2.9.2 3.6.3 4.1 1 4.1 3.5 0 3.1-1.7 4.2-6.7 4.2-5.3 0-6.2-1.2-6.2-4.1V34h-2.7v.4c0 5.6 3.4 6.7 8.9 6.8h.2c6.4 0 9.2-2.1 9.2-6.9.3-5.9-3.5-6.1-8-6.3M88 34.4c0 2.9-1.3 4.1-4.7 4.1-3.4 0-4.6-1-4.6-4.1V20.7h10.2v-2.6H78.6v-6.2h-2.8v6.2H72v2.6h3.8v13.8c0 4.7 2.3 6.8 7.3 6.8s7.5-2.2 7.5-6.8V34H88v.4zM102.5 17.7c-8.9 0-9.6 5.1-9.6 11.8 0 7.9 1.5 11.7 9.7 11.7 6 0 9.1-2.3 9.1-6.8V34H109v.4c0 2.8-2 4-6.3 4-6.2 0-6.9-2.4-6.9-8.4h16.3v-.4c0-6.9-.7-11.9-9.6-11.9m-6.8 9.7c.1-5.3 1.8-7.1 6.8-7.1s6.7 1.7 6.8 7.1H95.7zM124.8 17.7c-8.9 0-9.6 5.1-9.6 11.8 0 7.9 1.5 11.7 9.7 11.7 6 0 9.1-2.3 9.1-6.8V34h-2.7v.4c0 2.8-2 4-6.3 4-6.2 0-6.9-2.4-6.9-8.4h16.3v-.4c-.1-6.9-.8-11.9-9.6-11.9m-6.8 9.7c.1-5.3 1.8-7.1 6.8-7.1s6.7 1.7 6.8 7.1H118zM147.8 17.7c-3.3 0-5.8.9-7.4 2.8v-2.4h-2.7v29.1h2.8v-8.7c1.6 1.8 3.9 2.7 7.3 2.7 8.6 0 9.2-5.1 9.2-11.7 0-6.7-.6-11.8-9.2-11.8m6.4 11.7c0 5.6-.4 9.1-6.2 9.1s-7.5-2.1-7.5-9.1c0-6.9 1.8-9 7.5-9 5.8.1 6.2 3.4 6.2 9M169.6 17.7c-8.9 0-9.6 5.1-9.6 11.8 0 7.9 1.5 11.7 9.7 11.7 6 0 9.1-2.3 9.1-6.8V34h-2.7v.4c0 2.8-2 4-6.3 4-6.2 0-6.9-2.4-6.9-8.4h16.3v-.4c-.1-6.9-.8-11.9-9.6-11.9m-6.8 9.7c.1-5.3 1.8-7.1 6.8-7.1s6.7 1.7 6.8 7.1h-13.6zM191.8 17.7c-2.9 0-5 .9-6.4 2.6V18h-2.7v22.8h2.8V30.2c0-3.1 0-6.5 1.8-8.4 1-1 2.4-1.5 4.3-1.5 3.4 0 4.7 1.1 4.7 4v.4h2.7v-.4c0-4.3-2.5-6.6-7.2-6.6"/></g></svg>