<?xml version="1.0" encoding="utf-8"?>
<!-- Generator: Adobe Illustrator 25.1.0, SVG Export Plug-In . SVG Version: 6.00 Build 0)  -->
<svg version="1.1" id="Layer_1" xmlns="http://www.w3.org/2000/svg" xmlns:xlink="http://www.w3.org/1999/xlink" x="0px" y="0px"
	 viewBox="0 0 313 55" style="enable-background:new 0 0 313 55;" xml:space="preserve">
<style type="text/css">
	.st0{display:none;}
	.st1{display:inline;}
	.st2{display:inline;fill:#EA0029;}
</style>
<g id="Layer_1_1_" class="st0">
	<path class="st1" d="M-24.3,47.9V9.6c0,0,0-6.5-5.6-9.7l-33.2-19.3c0,0-5.6-3.2-11.2,0l-33.2,19.2c0,0-5.6,3.2-5.6,9.7v38.4
		c0,0,0,6.5,5.6,9.7l31.4,18.1v-0.6c0-0.2,0-0.3,0-0.4c0-0.2,0-0.3,0-0.4v-3.4v-0.8v-3.4c0-7.8,5-9,7.4-9s7.4,1.2,7.4,9v3.4v0.8v3.4
		c0,0.2,0,0.3,0,0.4c0,0.2,0,0.3,0,0.4v0.6l31.4-18.1C-29.9,57.7-24.3,54.4-24.3,47.9L-24.3,47.9z M-43.2,7.4c0,2.1-0.9,6.3-7,6.3
		h-11v33.1c0,7.1-5,8.3-7.3,8.3c-2.4,0-7.4-1.2-7.4-8.3V13.6h-11.5c-6,0-7-4.2-7-6.3s0.9-6.3,7-6.3h37.3
		C-44.1,1.1-43.2,5.3-43.2,7.4L-43.2,7.4z"/>
	<g class="st1">
		<path d="M418.9-6.6v6c0,1,0.7,1.2,1.1,1.2c0.3,0,1.1-0.2,1.1-1.2v-6h1.6c0.9,0,1-0.6,1-0.9c0-0.3-0.1-0.9-1-0.9h-5.4
			c-0.9,0-1,0.6-1,0.9c0,0.3,0.1,0.9,1,0.9H418.9L418.9-6.6z M431.6-1.9L431.6-1.9l-2.4-5.4c-0.5-1.1-1.1-1.3-1.5-1.3
			s-1.3,0.2-1.3,1.5v6.6c0,1,0.7,1.1,1,1.1s1-0.2,1-1.1v-4.2l0,0l1.8,4.3c0.4,0.9,0.8,1,1.2,1s0.8-0.1,1.2-1l1.9-4.3l0,0v4.1
			c0,1,0.7,1.2,1.1,1.2c0.3,0,1.1-0.2,1.1-1.2v-6.6c0-1.2-0.9-1.5-1.3-1.5c-0.4,0-1,0.1-1.5,1.3L431.6-1.9L431.6-1.9z"/>
		<path d="M352,53.2l25.1-53.6c3.5-7.8,8.1-8.8,11.7-8.8c3.6,0,8.5,1.4,11.8,8.8l24.5,53.8c0.9,2.2,1.2,3.7,1.2,5
			c0,5.4-4.1,8.6-8.7,8.6c-2.8,0-6.5-1.2-8.8-6.7l-3.7-8.9l-0.1-0.1h-12.9c-6.8,0-7.9-4.8-7.9-7.1s1.1-7.1,7.9-7.1h7.1l-10.2-24.6
			l-10.1,24.6l-5.9,14.4l-4.4,8.8c-2.3,5.8-6.1,6.8-9,6.8c-4.6,0-8.9-3.2-8.9-9C350.9,56.9,351.1,55.2,352,53.2L352,53.2z"/>
		<path d="M181.6,54c0-4.5,3.5-8.4,8.3-8.4c1.8,0,3.8,0.7,6.1,2.4c2.7,2,7.9,4.2,12.4,4.2c4.4,0,9-2.3,9-8.1
			c0-5.7-5.7-7.4-15.4-10.6c-9.4-3-19-7.9-19-21.3c0-16.4,14.9-23.3,28.7-23.3c5.7,0,12.4,1.6,16.9,4.3c3.8,2.3,4.8,4.8,4.8,7.4
			c0,4.2-3.1,7.9-7.5,7.9c-1.5,0-2.6-0.3-5.2-1.7c-4.2-2.2-7.1-3.1-9.7-3.1c-5.2,0-9.8,2.1-9.8,7.4c0,4.9,4.4,6.5,11.4,8.7
			c10.1,3.2,23,7.5,23,22.3c0,17.1-13.7,24.7-28.4,24.7c-7.4,0-16.8-2.4-21.4-6C182.4,58.5,181.6,56.1,181.6,54L181.6,54z"/>
		<path d="M312.1-5.9c2.5-2.5,4.9-3.4,7.1-3.4c4.7,0,8.3,3.4,8.3,8c0,2-0.6,4.6-3.7,7.3l-22,19.9l25.2,24.9c2.6,2.6,3.6,4.8,3.6,7.2
			c0,5.1-3.8,8.9-9,8.9c-2.2,0-4.8-0.8-7.4-3.7l-30.4-31.4h-0.2v25.3c0,8.5-6,9.8-8.8,9.8s-8.8-1.4-8.8-9.8V0.6c0-8.5,6-9.8,8.8-9.8
			s8.8,1.4,8.8,9.8V22h0.3L312.1-5.9L312.1-5.9z"/>
		<path d="M162.6,53.2L137.5-0.4c-3.5-7.8-8.1-8.8-11.7-8.8s-8.5,1.4-11.8,8.8L89.5,53.4c-0.9,2.2-1.2,3.7-1.2,5
			c0,5.4,4.1,8.6,8.7,8.6c2.8,0,6.5-1.2,8.8-6.7l3.7-8.9l0.1-0.1h12.9c6.8,0,7.9-4.8,7.9-7.1s-1.1-7.1-7.9-7.1h-7.1l10.2-24.6
			l10.1,24.6l5.9,14.4l4.4,8.8c2.3,5.8,6.1,6.8,9,6.8c4.6,0,8.9-3.2,8.9-9C163.6,56.9,163.5,55.2,162.6,53.2L162.6,53.2z"/>
		<path d="M21.6,7c-7.3,0-8.5-5.1-8.5-7.7c0-2.5,1.2-7.7,8.5-7.7H67c7.3,0,8.5,5.1,8.5,7.7C75.5,1.8,74.3,7,67,7H53.5v49.9
			c0,8.6-6.1,10.1-8.9,10.1c-2.9,0-9-1.5-9-10.1V7H21.6L21.6,7z"/>
	</g>
	<path class="st2" d="M-278.6,8.7L-278.6,8.7c0,2.1-0.9,6.3-7,6.3h-11.1v33.1c0,7.1-5,8.3-7.3,8.3c-2.4,0-7.4-1.2-7.4-8.3V15h-11.4
		c-6,0-7-4.2-7-6.3s0.9-6.3,7-6.3h37.2C-279.5,2.4-278.6,6.6-278.6,8.7"/>
</g>
<g id="Layer_2_1_">
	<g>
		<g>
			<path d="M157.1,42.2l-14.3-30.5c-2-4.4-4.6-5-6.7-5c-2,0-4.8,0.8-6.7,5l-14,30.7c-0.5,1.3-0.7,2.1-0.7,2.9c0,3.1,2.3,4.9,5,4.9
				c1.6,0,3.7-0.7,5-3.8l2.1-5.1h7.4c3.9,0,4.5-2.7,4.5-4.1c0-1.3-0.6-4.1-4.5-4.1h-4.1l5.8-14l11.6,27.2c1.3,3.3,3.5,3.9,5.1,3.9
				c2.6,0,5.1-1.8,5.1-5.1C157.7,44.4,157.6,43.3,157.1,42.2"/>
			<path d="M264.9,42.2l14.3-30.5c2-4.4,4.6-5,6.7-5c2,0,4.8,0.8,6.7,5l14,30.7c0.5,1.3,0.7,2.1,0.7,2.9c0,3.1-2.3,4.9-5,4.9
				c-1.6,0-3.7-0.7-5-3.8l-2.1-5.1h-7.4c-3.9,0-4.5-2.7-4.5-4.1c0-1.3,0.6-4.1,4.5-4.1h4.1l-5.8-14l-11.6,27.2
				c-1.3,3.3-3.5,3.9-5.1,3.9c-2.6,0-5.1-1.8-5.1-5.1C264.3,44.4,264.5,43.3,264.9,42.2"/>
			<path d="M47.4,11.8L28.6,0.9c-2-1.2-4.5-1.2-6.5,0L3.3,11.8c-2,1.2-3.2,3.3-3.2,5.6v21.7c0,2.3,1.2,4.4,3.2,5.6L21.1,55v-5.6
				c0-4,2.8-4.7,4.2-4.7c1.3,0,4.2,0.7,4.2,4.7V55l17.9-10.3c2-1.2,3.2-3.3,3.2-5.6V17.4C50.6,15.1,49.4,13,47.4,11.8z M36,19.7
				h-6.5v18.8c0,4-2.8,4.7-4.2,4.7s-4.2-0.7-4.2-4.7V19.7h-6.5c-3.4,0-4-2.4-4-3.6c0-1.2,0.5-3.6,4-3.6H36c3.4,0,4,2.4,4,3.6
				S39.4,19.7,36,19.7z"/>
			<path d="M167.9,42.7c0-2.6,2-4.8,4.7-4.8c1,0,2.1,0.4,3.5,1.4c1.6,1.1,4.5,2.4,7,2.4s5.1-1.3,5.1-4.6c0-3.2-3.2-4.2-8.8-6
				c-5.4-1.7-10.8-4.5-10.8-12.1c0-9.4,8.5-13.2,16.3-13.2c3.2,0,7,0.9,9.6,2.4c2.1,1.3,2.7,2.7,2.7,4.2c0,2.4-1.8,4.5-4.3,4.5
				c-0.8,0-1.5-0.2-3-1c-2.4-1.3-4.1-1.8-5.5-1.8c-3,0-5.6,1.2-5.6,4.2c0,2.8,2.5,3.7,6.5,5c5.7,1.8,13.1,4.3,13.1,12.7
				c0,9.7-7.8,14.1-16.2,14.1c-4.2,0-9.5-1.4-12.2-3.4C168.4,45.3,167.9,43.9,167.9,42.7"/>
			<path d="M242.3,8.6c1.4-1.4,2.8-1.9,4.1-1.9c2.7,0,4.7,1.9,4.7,4.5c0,1.1-0.4,2.6-2.1,4.2l-12.6,11.3l14.4,14.2
				c1.5,1.5,2,2.7,2,4.1c0,2.9-2.1,5.1-5.1,5.1c-1.3,0-2.7-0.5-4.2-2.1l-17.2-18h-0.1v14.4c0,4.8-3.4,5.6-5,5.6s-5-0.8-5-5.6V12.2
				c0-4.8,3.4-5.6,5-5.6s5,0.8,5,5.6v12.2h0.2L242.3,8.6z"/>
			<path d="M76.8,15.9c-4.2,0-4.8-2.9-4.8-4.4c0-1.4,0.7-4.4,4.8-4.4h25.8c4.2,0,4.8,2.9,4.8,4.4c0,1.4-0.7,4.4-4.8,4.4H95v28.4
				c0,4.9-3.5,5.7-5.1,5.7c-1.7,0-5.1-0.8-5.1-5.7V15.9H76.8z"/>
		</g>
		<path d="M303.1,7.8v3.4c0,0.6,0.4,0.7,0.6,0.7s0.6-0.1,0.6-0.7V7.8h0.9c0.5,0,0.6-0.4,0.6-0.5c0-0.2-0.1-0.5-0.6-0.5h-3.1
			c-0.5,0-0.6,0.4-0.6,0.5c0,0.2,0.1,0.5,0.6,0.5H303.1z M309.7,10.5L309.7,10.5l-1.3-3.1c-0.3-0.6-0.6-0.7-0.8-0.7
			c-0.2,0-0.7,0.1-0.7,0.8v3.8c0,0.6,0.4,0.6,0.6,0.6s0.6-0.1,0.6-0.6V8.9l0,0l1,2.4c0.2,0.5,0.5,0.6,0.7,0.6s0.5-0.1,0.7-0.6
			l1.1-2.4l0,0v2.3c0,0.6,0.4,0.7,0.6,0.7s0.6-0.1,0.6-0.7V7.5c0-0.7-0.5-0.8-0.7-0.8s-0.6,0.1-0.8,0.7L309.7,10.5z"/>
	</g>
</g>
</svg>
